# xmcd
#
# Track frame offsets: 
#        150
#        10531
#        23277
#        43648
#        57899
#        68941
#        86960
#        100668
#        117190
#        129260
#        141660
#        157654
#        172492
#        184792
#
# Disc length: 2640 seconds
#
# Revision: 3
# Processed by: cddbd v1.5.2PL0 Copyright (c) Steve Scherf et al.
# Submitted via: ExactAudioCopyFreeDBPlugin 1.0
#
DISCID=b30a4e0e
DTITLE=Мои Ракеты Вверх - Humanaut
DYEAR=2007
DGENRE=Indie
TTITLE0=Ordinary
TTITLE1=Pop
TTITLE2=Moose
TTITLE3=Hypnofrog
TTITLE4=Suck My eye
TTITLE5=Evenevening
TTITLE6=Counterclockwise
TTITLE7=Light-Scattering
TTITLE8=Gewgaw
TTITLE9=Under Reduction Of...
TTITLE10=Perfect
TTITLE11=Emergency
TTITLE12=Fake Blood Capsules
TTITLE13=Empty Lillie Manazi
EXTD=
EXTT0=
EXTT1=
EXTT2=
EXTT3=
EXTT4=
EXTT5=
EXTT6=
EXTT7=
EXTT8=
EXTT9=
EXTT10=
EXTT11=
EXTT12=
EXTT13=
PLAYORDER=
